<?xml version="1.0" encoding="UTF-8" standalone="no"?>
<!DOCTYPE svg PUBLIC "-//W3C//DTD SVG 1.1//EN"
 "http://www.w3.org/Graphics/SVG/1.1/DTD/svg11.dtd">
<!-- Generated by graphviz version 2.47.0 (20210316.0004)
 -->
<!-- Title: dependencies Pages: 1 -->
<svg width="582pt" height="211pt"
 viewBox="0.00 0.00 582.00 211.00" xmlns="http://www.w3.org/2000/svg" xmlns:xlink="http://www.w3.org/1999/xlink">
<g id="graph0" class="graph" transform="scale(1 1) rotate(0) translate(4 207)">
<title>dependencies</title>
<polygon fill="white" stroke="transparent" points="-4,4 -4,-207 578,-207 578,4 -4,4"/>
<text text-anchor="start" x="266.01" y="-42.4" font-family="Times-12" font-weight="bold" font-size="14.00">Legend</text>
<polygon fill="#ffffb3" stroke="transparent" points="53,-10 53,-30 73,-30 73,-10 53,-10"/>
<text text-anchor="start" x="76.63" y="-15.4" font-family="Times-12" font-size="14.00"> &#160;Declarations</text>
<polygon fill="#8dd3c7" stroke="transparent" points="166,-10 166,-30 186,-30 186,-10 166,-10"/>
<text text-anchor="start" x="189.73" y="-15.4" font-family="Times-12" font-size="14.00"> &#160;Module</text>
<polygon fill="#80b1d3" stroke="transparent" points="252,-10 252,-30 272,-30 272,-10 252,-10"/>
<text text-anchor="start" x="275.78" y="-15.4" font-family="Times-12" font-size="14.00"> &#160;Bootstrap</text>
<polygon fill="#fdb462" stroke="transparent" points="349,-10 349,-30 369,-30 369,-10 349,-10"/>
<text text-anchor="start" x="372.67" y="-15.4" font-family="Times-12" font-size="14.00"> &#160;Providers</text>
<polygon fill="#fb8072" stroke="transparent" points="445,-10 445,-30 465,-30 465,-10 445,-10"/>
<text text-anchor="start" x="468.73" y="-15.4" font-family="Times-12" font-size="14.00"> &#160;Exports</text>
<g id="clust1" class="cluster">
<title>cluster_ReservationModule</title>
<polygon fill="none" stroke="black" stroke-dasharray="1,5" points="8,-70 8,-195 566,-195 566,-70 8,-70"/>
</g>
<g id="clust3" class="cluster">
<title>cluster_ReservationModule_imports</title>
<polygon fill="none" stroke="black" points="430,-78 430,-130 558,-130 558,-78 430,-78"/>
</g>
<g id="clust6" class="cluster">
<title>cluster_ReservationModule_providers</title>
<polygon fill="none" stroke="black" points="16,-78 16,-130 422,-130 422,-78 16,-78"/>
</g>
<!-- AppwriteModule -->
<g id="node1" class="node">
<title>AppwriteModule</title>
<polygon fill="#8dd3c7" stroke="black" points="550.42,-122 547.42,-126 526.42,-126 523.42,-122 437.58,-122 437.58,-86 550.42,-86 550.42,-122"/>
<text text-anchor="middle" x="494" y="-99.8" font-family="Times,serif" font-size="14.00">AppwriteModule</text>
</g>
<!-- ReservationModule -->
<g id="node2" class="node">
<title>ReservationModule</title>
<polygon fill="#8dd3c7" stroke="black" points="377.42,-187 374.42,-191 353.42,-191 350.42,-187 250.58,-187 250.58,-151 377.42,-151 377.42,-187"/>
<text text-anchor="middle" x="314" y="-164.8" font-family="Times,serif" font-size="14.00">ReservationModule</text>
</g>
<!-- AppwriteModule&#45;&gt;ReservationModule -->
<g id="edge1" class="edge">
<title>AppwriteModule&#45;&gt;ReservationModule</title>
<path fill="none" stroke="black" d="M494,-122.11C494,-141.34 494,-169 494,-169 494,-169 387.46,-169 387.46,-169"/>
<polygon fill="black" stroke="black" points="387.46,-165.5 377.46,-169 387.46,-172.5 387.46,-165.5"/>
</g>
<!-- ReservationRepository -->
<g id="node3" class="node">
<title>ReservationRepository</title>
<ellipse fill="#fdb462" stroke="black" cx="314" cy="-104" rx="99.58" ry="18"/>
<text text-anchor="middle" x="314" y="-99.8" font-family="Times,serif" font-size="14.00">ReservationRepository</text>
</g>
<!-- ReservationRepository&#45;&gt;ReservationModule -->
<g id="edge2" class="edge">
<title>ReservationRepository&#45;&gt;ReservationModule</title>
<path fill="none" stroke="black" d="M314,-122.11C314,-122.11 314,-140.99 314,-140.99"/>
<polygon fill="black" stroke="black" points="310.5,-140.99 314,-150.99 317.5,-140.99 310.5,-140.99"/>
</g>
<!-- ReservationService -->
<g id="node4" class="node">
<title>ReservationService</title>
<ellipse fill="#fdb462" stroke="black" cx="110" cy="-104" rx="86.23" ry="18"/>
<text text-anchor="middle" x="110" y="-99.8" font-family="Times,serif" font-size="14.00">ReservationService</text>
</g>
<!-- ReservationService&#45;&gt;ReservationModule -->
<g id="edge3" class="edge">
<title>ReservationService&#45;&gt;ReservationModule</title>
<path fill="none" stroke="black" d="M110,-122.11C110,-141.34 110,-169 110,-169 110,-169 240.57,-169 240.57,-169"/>
<polygon fill="black" stroke="black" points="240.57,-172.5 250.57,-169 240.57,-165.5 240.57,-172.5"/>
</g>
</g>
</svg>
