<?xml version="1.0" encoding="UTF-8" standalone="no"?>
<!DOCTYPE svg PUBLIC "-//W3C//DTD SVG 1.1//EN"
 "http://www.w3.org/Graphics/SVG/1.1/DTD/svg11.dtd">
<!-- Generated by graphviz version 2.47.0 (20210316.0004)
 -->
<!-- Title: dependencies Pages: 1 -->
<svg width="730pt" height="284pt"
 viewBox="0.00 0.00 730.00 284.00" xmlns="http://www.w3.org/2000/svg" xmlns:xlink="http://www.w3.org/1999/xlink">
<g id="graph0" class="graph" transform="scale(1 1) rotate(0) translate(4 280)">
<title>dependencies</title>
<polygon fill="white" stroke="transparent" points="-4,4 -4,-280 726,-280 726,4 -4,4"/>
<text text-anchor="start" x="340.01" y="-42.4" font-family="Times-12" font-weight="bold" font-size="14.00">Legend</text>
<polygon fill="#ffffb3" stroke="transparent" points="127,-10 127,-30 147,-30 147,-10 127,-10"/>
<text text-anchor="start" x="150.63" y="-15.4" font-family="Times-12" font-size="14.00"> &#160;Declarations</text>
<polygon fill="#8dd3c7" stroke="transparent" points="240,-10 240,-30 260,-30 260,-10 240,-10"/>
<text text-anchor="start" x="263.73" y="-15.4" font-family="Times-12" font-size="14.00"> &#160;Module</text>
<polygon fill="#80b1d3" stroke="transparent" points="326,-10 326,-30 346,-30 346,-10 326,-10"/>
<text text-anchor="start" x="349.78" y="-15.4" font-family="Times-12" font-size="14.00"> &#160;Bootstrap</text>
<polygon fill="#fdb462" stroke="transparent" points="423,-10 423,-30 443,-30 443,-10 423,-10"/>
<text text-anchor="start" x="446.67" y="-15.4" font-family="Times-12" font-size="14.00"> &#160;Providers</text>
<polygon fill="#fb8072" stroke="transparent" points="519,-10 519,-30 539,-30 539,-10 519,-10"/>
<text text-anchor="start" x="542.73" y="-15.4" font-family="Times-12" font-size="14.00"> &#160;Exports</text>
<g id="clust1" class="cluster">
<title>cluster_SharedModule</title>
<polygon fill="none" stroke="black" stroke-dasharray="1,5" points="8,-70 8,-268 714,-268 714,-70 8,-70"/>
</g>
<g id="clust4" class="cluster">
<title>cluster_SharedModule_exports</title>
<polygon fill="none" stroke="black" points="70,-208 70,-260 604,-260 604,-208 70,-208"/>
</g>
<g id="clust6" class="cluster">
<title>cluster_SharedModule_providers</title>
<polygon fill="none" stroke="black" points="16,-78 16,-130 706,-130 706,-78 16,-78"/>
</g>
<!-- ConfigService  -->
<g id="node1" class="node">
<title>ConfigService </title>
<polygon fill="#fb8072" stroke="black" points="596.37,-252 495.63,-252 495.63,-216 596.37,-216 596.37,-252"/>
<text text-anchor="middle" x="546" y="-229.8" font-family="Times,serif" font-size="14.00">ConfigService </text>
</g>
<!-- ContextService  -->
<g id="node2" class="node">
<title>ContextService </title>
<polygon fill="#fb8072" stroke="black" points="477.81,-252 372.19,-252 372.19,-216 477.81,-216 477.81,-252"/>
<text text-anchor="middle" x="425" y="-229.8" font-family="Times,serif" font-size="14.00">ContextService </text>
</g>
<!-- CustomLoggingService  -->
<g id="node3" class="node">
<title>CustomLoggingService </title>
<polygon fill="#fb8072" stroke="black" points="354.48,-252 201.52,-252 201.52,-216 354.48,-216 354.48,-252"/>
<text text-anchor="middle" x="278" y="-229.8" font-family="Times,serif" font-size="14.00">CustomLoggingService </text>
</g>
<!-- HelpersService  -->
<g id="node4" class="node">
<title>HelpersService </title>
<polygon fill="#fb8072" stroke="black" points="183.51,-252 78.49,-252 78.49,-216 183.51,-216 183.51,-252"/>
<text text-anchor="middle" x="131" y="-229.8" font-family="Times,serif" font-size="14.00">HelpersService </text>
</g>
<!-- SharedModule -->
<g id="node5" class="node">
<title>SharedModule</title>
<polygon fill="#8dd3c7" stroke="black" points="381.42,-187 378.42,-191 357.42,-191 354.42,-187 282.58,-187 282.58,-151 381.42,-151 381.42,-187"/>
<text text-anchor="middle" x="332" y="-164.8" font-family="Times,serif" font-size="14.00">SharedModule</text>
</g>
<!-- SharedModule&#45;&gt;ConfigService  -->
<g id="edge1" class="edge">
<title>SharedModule&#45;&gt;ConfigService </title>
<path fill="none" stroke="black" stroke-dasharray="5,2" d="M381.21,-178C437.27,-178 521.19,-178 521.19,-178 521.19,-178 521.19,-205.97 521.19,-205.97"/>
<polygon fill="black" stroke="black" points="517.69,-205.97 521.19,-215.97 524.69,-205.97 517.69,-205.97"/>
</g>
<!-- SharedModule&#45;&gt;ContextService  -->
<g id="edge2" class="edge">
<title>SharedModule&#45;&gt;ContextService </title>
<path fill="none" stroke="black" stroke-dasharray="5,2" d="M376.65,-187.11C376.65,-187.11 376.65,-205.99 376.65,-205.99"/>
<polygon fill="black" stroke="black" points="373.15,-205.99 376.65,-215.99 380.15,-205.99 373.15,-205.99"/>
</g>
<!-- SharedModule&#45;&gt;CustomLoggingService  -->
<g id="edge3" class="edge">
<title>SharedModule&#45;&gt;CustomLoggingService </title>
<path fill="none" stroke="black" stroke-dasharray="5,2" d="M318.52,-187.11C318.52,-187.11 318.52,-205.99 318.52,-205.99"/>
<polygon fill="black" stroke="black" points="315.02,-205.99 318.52,-215.99 322.02,-205.99 315.02,-205.99"/>
</g>
<!-- SharedModule&#45;&gt;HelpersService  -->
<g id="edge4" class="edge">
<title>SharedModule&#45;&gt;HelpersService </title>
<path fill="none" stroke="black" stroke-dasharray="5,2" d="M282.6,-175C235.96,-175 173.13,-175 173.13,-175 173.13,-175 173.13,-205.98 173.13,-205.98"/>
<polygon fill="black" stroke="black" points="169.63,-205.98 173.13,-215.98 176.63,-205.98 169.63,-205.98"/>
</g>
<!-- ConfigService -->
<g id="node6" class="node">
<title>ConfigService</title>
<ellipse fill="#fdb462" stroke="black" cx="631" cy="-104" rx="66.63" ry="18"/>
<text text-anchor="middle" x="631" y="-99.8" font-family="Times,serif" font-size="14.00">ConfigService</text>
</g>
<!-- ConfigService&#45;&gt;SharedModule -->
<g id="edge5" class="edge">
<title>ConfigService&#45;&gt;SharedModule</title>
<path fill="none" stroke="black" d="M580.18,-115.92C580.18,-134.69 580.18,-169 580.18,-169 580.18,-169 391.33,-169 391.33,-169"/>
<polygon fill="black" stroke="black" points="391.33,-165.5 381.33,-169 391.33,-172.5 391.33,-165.5"/>
</g>
<!-- ContextService -->
<g id="node7" class="node">
<title>ContextService</title>
<ellipse fill="#fdb462" stroke="black" cx="476" cy="-104" rx="70.64" ry="18"/>
<text text-anchor="middle" x="476" y="-99.8" font-family="Times,serif" font-size="14.00">ContextService</text>
</g>
<!-- ContextService&#45;&gt;SharedModule -->
<g id="edge6" class="edge">
<title>ContextService&#45;&gt;SharedModule</title>
<path fill="none" stroke="black" d="M441.67,-119.9C441.67,-136.45 441.67,-160 441.67,-160 441.67,-160 391.38,-160 391.38,-160"/>
<polygon fill="black" stroke="black" points="391.38,-156.5 381.38,-160 391.38,-163.5 391.38,-156.5"/>
</g>
<!-- CustomLoggingService -->
<g id="node8" class="node">
<title>CustomLoggingService</title>
<ellipse fill="#fdb462" stroke="black" cx="285" cy="-104" rx="102.53" ry="18"/>
<text text-anchor="middle" x="285" y="-99.8" font-family="Times,serif" font-size="14.00">CustomLoggingService</text>
</g>
<!-- CustomLoggingService&#45;&gt;SharedModule -->
<g id="edge7" class="edge">
<title>CustomLoggingService&#45;&gt;SharedModule</title>
<path fill="none" stroke="black" d="M332,-120.07C332,-120.07 332,-140.82 332,-140.82"/>
<polygon fill="black" stroke="black" points="328.5,-140.82 332,-150.82 335.5,-140.82 328.5,-140.82"/>
</g>
<!-- HelpersService -->
<g id="node9" class="node">
<title>HelpersService</title>
<ellipse fill="#fdb462" stroke="black" cx="94" cy="-104" rx="70.04" ry="18"/>
<text text-anchor="middle" x="94" y="-99.8" font-family="Times,serif" font-size="14.00">HelpersService</text>
</g>
<!-- HelpersService&#45;&gt;SharedModule -->
<g id="edge8" class="edge">
<title>HelpersService&#45;&gt;SharedModule</title>
<path fill="none" stroke="black" d="M121.26,-120.75C121.26,-138.19 121.26,-163 121.26,-163 121.26,-163 272.59,-163 272.59,-163"/>
<polygon fill="black" stroke="black" points="272.59,-166.5 282.59,-163 272.59,-159.5 272.59,-166.5"/>
</g>
</g>
</svg>
