<?xml version="1.0" encoding="UTF-8" standalone="no"?>
<!DOCTYPE svg PUBLIC "-//W3C//DTD SVG 1.1//EN"
 "http://www.w3.org/Graphics/SVG/1.1/DTD/svg11.dtd">
<!-- Generated by graphviz version 2.47.0 (20210316.0004)
 -->
<!-- Title: dependencies Pages: 1 -->
<svg width="2034pt" height="355pt"
 viewBox="0.00 0.00 2034.00 355.00" xmlns="http://www.w3.org/2000/svg" xmlns:xlink="http://www.w3.org/1999/xlink">
<g id="graph0" class="graph" transform="scale(1 1) rotate(0) translate(4 351)">
<title>dependencies</title>
<polygon fill="white" stroke="transparent" points="-4,4 -4,-351 2030,-351 2030,4 -4,4"/>
<text text-anchor="start" x="992.01" y="-42.4" font-family="Times-12" font-weight="bold" font-size="14.00">Legend</text>
<polygon fill="#ffffb3" stroke="transparent" points="779,-10 779,-30 799,-30 799,-10 779,-10"/>
<text text-anchor="start" x="802.63" y="-15.4" font-family="Times-12" font-size="14.00"> &#160;Declarations</text>
<polygon fill="#8dd3c7" stroke="transparent" points="892,-10 892,-30 912,-30 912,-10 892,-10"/>
<text text-anchor="start" x="915.73" y="-15.4" font-family="Times-12" font-size="14.00"> &#160;Module</text>
<polygon fill="#80b1d3" stroke="transparent" points="978,-10 978,-30 998,-30 998,-10 978,-10"/>
<text text-anchor="start" x="1001.78" y="-15.4" font-family="Times-12" font-size="14.00"> &#160;Bootstrap</text>
<polygon fill="#fdb462" stroke="transparent" points="1075,-10 1075,-30 1095,-30 1095,-10 1075,-10"/>
<text text-anchor="start" x="1098.67" y="-15.4" font-family="Times-12" font-size="14.00"> &#160;Providers</text>
<polygon fill="#fb8072" stroke="transparent" points="1171,-10 1171,-30 1191,-30 1191,-10 1171,-10"/>
<text text-anchor="start" x="1194.73" y="-15.4" font-family="Times-12" font-size="14.00"> &#160;Exports</text>
<g id="clust1" class="cluster">
<title>cluster_AppModule</title>
<polygon fill="none" stroke="black" stroke-dasharray="1,5" points="720,-214 720,-339 1342,-339 1342,-214 720,-214"/>
</g>
<g id="clust3" class="cluster">
<title>cluster_AppModule_imports</title>
<polygon fill="none" stroke="black" points="866,-222 866,-274 1334,-274 1334,-222 866,-222"/>
</g>
<g id="clust6" class="cluster">
<title>cluster_AppModule_providers</title>
<polygon fill="none" stroke="black" points="728,-222 728,-274 858,-274 858,-222 728,-222"/>
</g>
<g id="clust7" class="cluster">
<title>cluster_AppwriteModule</title>
<polygon fill="none" stroke="black" stroke-dasharray="1,5" points="1834,-70 1834,-282 2018,-282 2018,-70 1834,-70"/>
</g>
<g id="clust10" class="cluster">
<title>cluster_AppwriteModule_exports</title>
<polygon fill="none" stroke="black" points="1842,-222 1842,-274 1972,-274 1972,-222 1842,-222"/>
</g>
<g id="clust12" class="cluster">
<title>cluster_AppwriteModule_providers</title>
<polygon fill="none" stroke="black" points="1842,-78 1842,-130 2010,-130 2010,-78 1842,-78"/>
</g>
<g id="clust13" class="cluster">
<title>cluster_AuthModule</title>
<polygon fill="none" stroke="black" stroke-dasharray="1,5" points="870,-138 870,-206 1240,-206 1240,-138 870,-138"/>
</g>
<g id="clust18" class="cluster">
<title>cluster_AuthModule_providers</title>
<polygon fill="none" stroke="black" points="878,-146 878,-198 1232,-198 1232,-146 878,-146"/>
</g>
<g id="clust19" class="cluster">
<title>cluster_ReservationModule</title>
<polygon fill="none" stroke="black" stroke-dasharray="1,5" points="1248,-138 1248,-206 1670,-206 1670,-138 1248,-138"/>
</g>
<g id="clust24" class="cluster">
<title>cluster_ReservationModule_providers</title>
<polygon fill="none" stroke="black" points="1256,-146 1256,-198 1662,-198 1662,-146 1256,-146"/>
</g>
<g id="clust25" class="cluster">
<title>cluster_SharedModule</title>
<polygon fill="none" stroke="black" stroke-dasharray="1,5" points="8,-138 8,-206 862,-206 862,-138 8,-138"/>
</g>
<g id="clust28" class="cluster">
<title>cluster_SharedModule_exports</title>
<polygon fill="none" stroke="black" points="491,-146 491,-198 854,-198 854,-146 491,-146"/>
</g>
<g id="clust30" class="cluster">
<title>cluster_SharedModule_providers</title>
<polygon fill="none" stroke="black" points="16,-146 16,-198 483,-198 483,-146 16,-146"/>
</g>
<g id="clust31" class="cluster">
<title>cluster_UserModule</title>
<polygon fill="none" stroke="black" stroke-dasharray="1,5" points="1678,-138 1678,-206 1826,-206 1826,-138 1678,-138"/>
</g>
<g id="clust36" class="cluster">
<title>cluster_UserModule_providers</title>
<polygon fill="none" stroke="black" points="1686,-146 1686,-198 1818,-198 1818,-146 1686,-146"/>
</g>
<!-- AuthModule -->
<g id="node1" class="node">
<title>AuthModule</title>
<polygon fill="#8dd3c7" stroke="black" points="1077.55,-266 1074.55,-270 1053.55,-270 1050.55,-266 990.45,-266 990.45,-230 1077.55,-230 1077.55,-266"/>
<text text-anchor="middle" x="1034" y="-243.8" font-family="Times,serif" font-size="14.00">AuthModule</text>
</g>
<!-- AppModule -->
<g id="node5" class="node">
<title>AppModule</title>
<polygon fill="#8dd3c7" stroke="black" points="1075.66,-331 1072.66,-335 1051.66,-335 1048.66,-331 992.34,-331 992.34,-295 1075.66,-295 1075.66,-331"/>
<text text-anchor="middle" x="1034" y="-308.8" font-family="Times,serif" font-size="14.00">AppModule</text>
</g>
<!-- AuthModule&#45;&gt;AppModule -->
<g id="edge1" class="edge">
<title>AuthModule&#45;&gt;AppModule</title>
<path fill="none" stroke="black" d="M1020.06,-266.11C1020.06,-266.11 1020.06,-284.99 1020.06,-284.99"/>
<polygon fill="black" stroke="black" points="1016.56,-284.99 1020.06,-294.99 1023.56,-284.99 1016.56,-284.99"/>
</g>
<!-- AuthModule&#45;&gt;AppModule -->
<g id="edge2" class="edge">
<title>AuthModule&#45;&gt;AppModule</title>
<path fill="none" stroke="black" d="M1047.94,-266.11C1047.94,-266.11 1047.94,-284.99 1047.94,-284.99"/>
<polygon fill="black" stroke="black" points="1044.44,-284.99 1047.94,-294.99 1051.44,-284.99 1044.44,-284.99"/>
</g>
<!-- ReservationModule -->
<g id="node2" class="node">
<title>ReservationModule</title>
<polygon fill="#8dd3c7" stroke="black" points="1222.42,-266 1219.42,-270 1198.42,-270 1195.42,-266 1095.58,-266 1095.58,-230 1222.42,-230 1222.42,-266"/>
<text text-anchor="middle" x="1159" y="-243.8" font-family="Times,serif" font-size="14.00">ReservationModule</text>
</g>
<!-- ReservationModule&#45;&gt;AppModule -->
<g id="edge3" class="edge">
<title>ReservationModule&#45;&gt;AppModule</title>
<path fill="none" stroke="black" d="M1159,-266.02C1159,-283.37 1159,-307 1159,-307 1159,-307 1085.97,-307 1085.97,-307"/>
<polygon fill="black" stroke="black" points="1085.97,-303.5 1075.97,-307 1085.97,-310.5 1085.97,-303.5"/>
</g>
<!-- SharedModule -->
<g id="node3" class="node">
<title>SharedModule</title>
<polygon fill="#8dd3c7" stroke="black" points="972.42,-266 969.42,-270 948.42,-270 945.42,-266 873.58,-266 873.58,-230 972.42,-230 972.42,-266"/>
<text text-anchor="middle" x="923" y="-243.8" font-family="Times,serif" font-size="14.00">SharedModule</text>
</g>
<!-- SharedModule&#45;&gt;AppModule -->
<g id="edge4" class="edge">
<title>SharedModule&#45;&gt;AppModule</title>
<path fill="none" stroke="black" d="M923,-266.02C923,-283.37 923,-307 923,-307 923,-307 982.04,-307 982.04,-307"/>
<polygon fill="black" stroke="black" points="982.04,-310.5 992.04,-307 982.04,-303.5 982.04,-310.5"/>
</g>
<!-- ConfigService  -->
<g id="node14" class="node">
<title>ConfigService </title>
<polygon fill="#fb8072" stroke="black" points="846.37,-190 745.63,-190 745.63,-154 846.37,-154 846.37,-190"/>
<text text-anchor="middle" x="796" y="-167.8" font-family="Times,serif" font-size="14.00">ConfigService </text>
</g>
<!-- SharedModule&#45;&gt;ConfigService  -->
<g id="edge15" class="edge">
<title>SharedModule&#45;&gt;ConfigService </title>
<path fill="none" stroke="black" stroke-dasharray="5,2" d="M879.74,-229.99C879.74,-207.51 879.74,-172 879.74,-172 879.74,-172 856.65,-172 856.65,-172"/>
<polygon fill="black" stroke="black" points="856.65,-168.5 846.65,-172 856.65,-175.5 856.65,-168.5"/>
</g>
<!-- ContextService  -->
<g id="node15" class="node">
<title>ContextService </title>
<polygon fill="#fb8072" stroke="black" points="727.81,-190 622.19,-190 622.19,-154 727.81,-154 727.81,-190"/>
<text text-anchor="middle" x="675" y="-167.8" font-family="Times,serif" font-size="14.00">ContextService </text>
</g>
<!-- SharedModule&#45;&gt;ContextService  -->
<g id="edge16" class="edge">
<title>SharedModule&#45;&gt;ContextService </title>
<path fill="none" stroke="black" stroke-dasharray="5,2" d="M883.71,-229.68C883.71,-221.21 883.71,-213 883.71,-213 883.71,-213 675,-213 675,-213 675,-213 675,-200.1 675,-200.1"/>
<polygon fill="black" stroke="black" points="678.5,-200.1 675,-190.1 671.5,-200.1 678.5,-200.1"/>
</g>
<!-- HeleprsService  -->
<g id="node16" class="node">
<title>HeleprsService </title>
<polygon fill="#fb8072" stroke="black" points="604.51,-190 499.49,-190 499.49,-154 604.51,-154 604.51,-190"/>
<text text-anchor="middle" x="552" y="-167.8" font-family="Times,serif" font-size="14.00">HeleprsService </text>
</g>
<!-- SharedModule&#45;&gt;HeleprsService  -->
<g id="edge17" class="edge">
<title>SharedModule&#45;&gt;HeleprsService </title>
<path fill="none" stroke="black" stroke-dasharray="5,2" d="M881.73,-229.97C881.73,-223.15 881.73,-217 881.73,-217 881.73,-217 552,-217 552,-217 552,-217 552,-200.04 552,-200.04"/>
<polygon fill="black" stroke="black" points="555.5,-200.04 552,-190.04 548.5,-200.04 555.5,-200.04"/>
</g>
<!-- UserModule -->
<g id="node4" class="node">
<title>UserModule</title>
<polygon fill="#8dd3c7" stroke="black" points="1325.98,-266 1322.98,-270 1301.98,-270 1298.98,-266 1240.02,-266 1240.02,-230 1325.98,-230 1325.98,-266"/>
<text text-anchor="middle" x="1283" y="-243.8" font-family="Times,serif" font-size="14.00">UserModule</text>
</g>
<!-- UserModule&#45;&gt;AppModule -->
<g id="edge5" class="edge">
<title>UserModule&#45;&gt;AppModule</title>
<path fill="none" stroke="black" d="M1283,-266.28C1283,-287.32 1283,-319 1283,-319 1283,-319 1085.68,-319 1085.68,-319"/>
<polygon fill="black" stroke="black" points="1085.68,-315.5 1075.68,-319 1085.68,-322.5 1085.68,-315.5"/>
</g>
<!-- AppService -->
<g id="node6" class="node">
<title>AppService</title>
<ellipse fill="#fdb462" stroke="black" cx="793" cy="-248" rx="56.74" ry="18"/>
<text text-anchor="middle" x="793" y="-243.8" font-family="Times,serif" font-size="14.00">AppService</text>
</g>
<!-- AppService&#45;&gt;AppModule -->
<g id="edge6" class="edge">
<title>AppService&#45;&gt;AppModule</title>
<path fill="none" stroke="black" d="M793,-266.28C793,-287.32 793,-319 793,-319 793,-319 982.3,-319 982.3,-319"/>
<polygon fill="black" stroke="black" points="982.3,-322.5 992.3,-319 982.3,-315.5 982.3,-322.5"/>
</g>
<!-- AppwriteService  -->
<g id="node7" class="node">
<title>AppwriteService </title>
<polygon fill="#fb8072" stroke="black" points="1964.35,-266 1849.65,-266 1849.65,-230 1964.35,-230 1964.35,-266"/>
<text text-anchor="middle" x="1907" y="-243.8" font-family="Times,serif" font-size="14.00">AppwriteService </text>
</g>
<!-- AppwriteModule -->
<g id="node8" class="node">
<title>AppwriteModule</title>
<polygon fill="#8dd3c7" stroke="black" points="1954.42,-190 1951.42,-194 1930.42,-194 1927.42,-190 1841.58,-190 1841.58,-154 1954.42,-154 1954.42,-190"/>
<text text-anchor="middle" x="1898" y="-167.8" font-family="Times,serif" font-size="14.00">AppwriteModule</text>
</g>
<!-- AppwriteModule&#45;&gt;AuthModule -->
<g id="edge9" class="edge">
<title>AppwriteModule&#45;&gt;AuthModule</title>
<path fill="none" stroke="black" d="M1843.8,-190.12C1843.8,-192.97 1843.8,-195 1843.8,-195 1843.8,-195 1059.14,-195 1059.14,-195 1059.14,-195 1059.14,-219.76 1059.14,-219.76"/>
<polygon fill="black" stroke="black" points="1055.64,-219.76 1059.14,-229.76 1062.64,-219.76 1055.64,-219.76"/>
</g>
<!-- AppwriteModule&#45;&gt;ReservationModule -->
<g id="edge12" class="edge">
<title>AppwriteModule&#45;&gt;ReservationModule</title>
<path fill="none" stroke="black" d="M1845.81,-190.42C1845.81,-199.28 1845.81,-208 1845.81,-208 1845.81,-208 1180.07,-208 1180.07,-208 1180.07,-208 1180.07,-219.87 1180.07,-219.87"/>
<polygon fill="black" stroke="black" points="1176.57,-219.87 1180.07,-229.87 1183.57,-219.87 1176.57,-219.87"/>
</g>
<!-- AppwriteModule&#45;&gt;UserModule -->
<g id="edge21" class="edge">
<title>AppwriteModule&#45;&gt;UserModule</title>
<path fill="none" stroke="black" d="M1847.82,-190.2C1847.82,-214.36 1847.82,-254 1847.82,-254 1847.82,-254 1336.38,-254 1336.38,-254"/>
<polygon fill="black" stroke="black" points="1336.38,-250.5 1326.38,-254 1336.38,-257.5 1336.38,-250.5"/>
</g>
<!-- AppwriteModule&#45;&gt;AppwriteService  -->
<g id="edge7" class="edge">
<title>AppwriteModule&#45;&gt;AppwriteService </title>
<path fill="none" stroke="black" stroke-dasharray="5,2" d="M1902.02,-190.01C1902.02,-190.01 1902.02,-219.85 1902.02,-219.85"/>
<polygon fill="black" stroke="black" points="1898.52,-219.85 1902.02,-229.85 1905.52,-219.85 1898.52,-219.85"/>
</g>
<!-- AppwriteService -->
<g id="node9" class="node">
<title>AppwriteService</title>
<ellipse fill="#fdb462" stroke="black" cx="1926" cy="-104" rx="76.42" ry="18"/>
<text text-anchor="middle" x="1926" y="-99.8" font-family="Times,serif" font-size="14.00">AppwriteService</text>
</g>
<!-- AppwriteService&#45;&gt;AppwriteModule -->
<g id="edge8" class="edge">
<title>AppwriteService&#45;&gt;AppwriteModule</title>
<path fill="none" stroke="black" d="M1901.87,-121.16C1901.87,-121.16 1901.87,-143.65 1901.87,-143.65"/>
<polygon fill="black" stroke="black" points="1898.37,-143.65 1901.87,-153.65 1905.37,-143.65 1898.37,-143.65"/>
</g>
<!-- AppwriteSessionGuard -->
<g id="node10" class="node">
<title>AppwriteSessionGuard</title>
<ellipse fill="#fdb462" stroke="black" cx="1123" cy="-172" rx="101.28" ry="18"/>
<text text-anchor="middle" x="1123" y="-167.8" font-family="Times,serif" font-size="14.00">AppwriteSessionGuard</text>
</g>
<!-- AppwriteSessionGuard&#45;&gt;AuthModule -->
<g id="edge10" class="edge">
<title>AppwriteSessionGuard&#45;&gt;AuthModule</title>
<path fill="none" stroke="black" d="M1040.5,-182.57C1040.5,-182.57 1040.5,-219.93 1040.5,-219.93"/>
<polygon fill="black" stroke="black" points="1037,-219.93 1040.5,-229.93 1044,-219.93 1037,-219.93"/>
</g>
<!-- AuthService -->
<g id="node11" class="node">
<title>AuthService</title>
<ellipse fill="#fdb462" stroke="black" cx="945" cy="-172" rx="59.11" ry="18"/>
<text text-anchor="middle" x="945" y="-167.8" font-family="Times,serif" font-size="14.00">AuthService</text>
</g>
<!-- AuthService&#45;&gt;AuthModule -->
<g id="edge11" class="edge">
<title>AuthService&#45;&gt;AuthModule</title>
<path fill="none" stroke="black" d="M997.27,-180.72C997.27,-180.72 997.27,-219.88 997.27,-219.88"/>
<polygon fill="black" stroke="black" points="993.77,-219.88 997.27,-229.88 1000.77,-219.88 993.77,-219.88"/>
</g>
<!-- ReservationRepository -->
<g id="node12" class="node">
<title>ReservationRepository</title>
<ellipse fill="#fdb462" stroke="black" cx="1554" cy="-172" rx="99.58" ry="18"/>
<text text-anchor="middle" x="1554" y="-167.8" font-family="Times,serif" font-size="14.00">ReservationRepository</text>
</g>
<!-- ReservationRepository&#45;&gt;ReservationModule -->
<g id="edge13" class="edge">
<title>ReservationRepository&#45;&gt;ReservationModule</title>
<path fill="none" stroke="black" d="M1554,-190.24C1554,-197.43 1554,-204 1554,-204 1554,-204 1137.93,-204 1137.93,-204 1137.93,-204 1137.93,-219.85 1137.93,-219.85"/>
<polygon fill="black" stroke="black" points="1134.43,-219.85 1137.93,-229.85 1141.43,-219.85 1134.43,-219.85"/>
</g>
<!-- ReservationService -->
<g id="node13" class="node">
<title>ReservationService</title>
<ellipse fill="#fdb462" stroke="black" cx="1350" cy="-172" rx="86.23" ry="18"/>
<text text-anchor="middle" x="1350" y="-167.8" font-family="Times,serif" font-size="14.00">ReservationService</text>
</g>
<!-- ReservationService&#45;&gt;ReservationModule -->
<g id="edge14" class="edge">
<title>ReservationService&#45;&gt;ReservationModule</title>
<path fill="none" stroke="black" d="M1263.68,-172C1245.7,-172 1232.08,-172 1232.08,-172 1232.08,-172 1232.08,-248 1232.08,-248 1232.08,-248 1231.09,-248 1231.09,-248"/>
<polygon fill="black" stroke="black" points="1232.22,-244.5 1222.22,-248 1232.22,-251.5 1232.22,-244.5"/>
</g>
<!-- ConfigService -->
<g id="node17" class="node">
<title>ConfigService</title>
<ellipse fill="#fdb462" stroke="black" cx="408" cy="-172" rx="66.63" ry="18"/>
<text text-anchor="middle" x="408" y="-167.8" font-family="Times,serif" font-size="14.00">ConfigService</text>
</g>
<!-- ConfigService&#45;&gt;SharedModule -->
<g id="edge18" class="edge">
<title>ConfigService&#45;&gt;SharedModule</title>
<path fill="none" stroke="black" d="M408,-190.05C408,-204.37 408,-222 408,-222 408,-222 877.76,-222 877.76,-222 877.76,-222 877.76,-222.79 877.76,-222.79"/>
<polygon fill="black" stroke="black" points="874.26,-219.94 877.76,-229.94 881.26,-219.94 874.26,-219.94"/>
</g>
<!-- ContextService -->
<g id="node18" class="node">
<title>ContextService</title>
<ellipse fill="#fdb462" stroke="black" cx="253" cy="-172" rx="70.64" ry="18"/>
<text text-anchor="middle" x="253" y="-167.8" font-family="Times,serif" font-size="14.00">ContextService</text>
</g>
<!-- ContextService&#45;&gt;SharedModule -->
<g id="edge19" class="edge">
<title>ContextService&#45;&gt;SharedModule</title>
<path fill="none" stroke="black" d="M253,-190.28C253,-205.95 253,-226 253,-226 253,-226 875.77,-226 875.77,-226 875.77,-226 875.77,-226.38 875.77,-226.38"/>
<polygon fill="black" stroke="black" points="872.27,-219.83 875.77,-229.83 879.27,-219.83 872.27,-219.83"/>
</g>
<!-- HeleprsService -->
<g id="node19" class="node">
<title>HeleprsService</title>
<ellipse fill="#fdb462" stroke="black" cx="94" cy="-172" rx="70.04" ry="18"/>
<text text-anchor="middle" x="94" y="-167.8" font-family="Times,serif" font-size="14.00">HeleprsService</text>
</g>
<!-- HeleprsService&#45;&gt;SharedModule -->
<g id="edge20" class="edge">
<title>HeleprsService&#45;&gt;SharedModule</title>
<path fill="none" stroke="black" d="M94,-190.16C94,-195.04 94,-199 94,-199 94,-199 928.95,-199 928.95,-199 928.95,-199 928.95,-219.75 928.95,-219.75"/>
<polygon fill="black" stroke="black" points="925.45,-219.75 928.95,-229.75 932.45,-219.75 925.45,-219.75"/>
</g>
<!-- UserService -->
<g id="node20" class="node">
<title>UserService</title>
<ellipse fill="#fdb462" stroke="black" cx="1752" cy="-172" rx="58.44" ry="18"/>
<text text-anchor="middle" x="1752" y="-167.8" font-family="Times,serif" font-size="14.00">UserService</text>
</g>
<!-- UserService&#45;&gt;UserModule -->
<g id="edge22" class="edge">
<title>UserService&#45;&gt;UserModule</title>
<path fill="none" stroke="black" d="M1752,-190.03C1752,-210.77 1752,-242 1752,-242 1752,-242 1336.28,-242 1336.28,-242"/>
<polygon fill="black" stroke="black" points="1336.28,-238.5 1326.28,-242 1336.28,-245.5 1336.28,-238.5"/>
</g>
</g>
</svg>
